<svg id="Capa_1" enable-background="new 0 0 512 512" height="512" viewBox="0 0 512 512" width="512" xmlns="http://www.w3.org/2000/svg"><g><circle cx="256" cy="256" fill="#f3f5f9" r="256"/><path d="m512 256c0-140.61-115.39-256-256-256v512c140.61 0 256-115.39 256-256z" fill="#e1e6f0"/><circle cx="256" cy="256" fill="#ff7f40" r="226"/><path d="m482 256c0-124.072-101.928-226-226-226v452c124.072 0 226-101.928 226-226z" fill="#f25a3c"/><path d="m451.24 241c-3.259-42.488-20.112-82.161-46.32-112.709l-22.456 1.245 1.245-22.456c-30.548-26.208-70.221-43.061-112.709-46.32l-15 29.24-15-29.24c-42.488 3.259-82.161 20.112-112.709 46.32l1.245 22.456-22.456-1.245c-26.208 30.548-43.061 70.221-46.32 112.709l29.24 15-29.24 15c3.259 42.488 20.112 82.161 46.32 112.709l22.456-10.034-1.245 31.245c30.547 26.208 70.221 43.061 112.709 46.32l15-29.24 15 29.24c42.488-3.259 82.161-20.112 112.709-46.32l-1.245-22.456 22.456 1.245c26.208-30.547 43.061-70.221 46.32-112.709l-29.24-15z" fill="#f3f5f9"/><g fill="#e1e6f0"><path d="m383.709 404.92-1.245-22.456 22.456 1.245c26.208-30.547 43.061-70.221 46.32-112.709l-29.24-15 29.24-15c-3.259-42.488-20.112-82.161-46.32-112.709l-22.456 1.245 1.245-22.456c-30.548-26.208-70.221-43.061-112.709-46.32l-15 29.24v332l15 29.24c42.488-3.259 82.161-20.112 112.709-46.32z"/><path d="m120 256c0-8.291-6.709-15-15-15h-44.24c-.381 4.968-.76 9.937-.76 15s.379 10.032.76 15h44.24c8.291 0 15-6.709 15-15z"/><path d="m159.536 159.536c5.859-5.859 5.859-15.352 0-21.211l-31.245-31.245c-7.603 6.52-14.691 13.608-21.211 21.211l31.245 31.245c5.86 5.86 15.352 5.86 21.211 0z"/><path d="m159.536 352.464c-5.859-5.859-15.352-5.859-21.211 0l-31.245 31.245c6.52 7.603 13.608 14.691 21.211 21.211l31.245-31.245c5.86-5.86 5.86-15.352 0-21.211z"/></g><path d="m326.605 305.395-55.605-55.606v-84.789c0-8.291-6.709-15-15-15s-15 6.709-15 15v91c0 3.984 1.582 7.793 4.395 10.605l10.605 10.606 49.395 49.395c5.859 5.859 15.352 5.859 21.211 0s5.859-15.352-.001-21.211z" fill="#4d3535"/><path d="m326.605 326.605c5.859-5.859 5.859-15.352 0-21.211l-55.605-55.605v-84.789c0-8.291-6.709-15-15-15v127.211l49.395 49.395c5.859 5.859 15.351 5.859 21.21-.001z" fill="#331e1e"/><path d="m256 60c-5.063 0-10.032.379-15 .76v44.24c0 8.291 6.709 15 15 15s15-6.709 15-15v-44.24c-4.968-.381-9.937-.76-15-.76z" fill="#e1e6f0"/><path d="m271 105v-44.24c-4.968-.381-9.937-.76-15-.76v60c8.291 0 15-6.709 15-15z" fill="#cfd7e6"/><path d="m256 392c-8.291 0-15 6.709-15 15v44.24c4.968.381 9.937.76 15 .76s10.032-.379 15-.76v-44.24c0-8.291-6.709-15-15-15z" fill="#e1e6f0"/><path d="m271 407c0-8.291-6.709-15-15-15v60c5.063 0 10.032-.379 15-.76z" fill="#cfd7e6"/><path d="m451.24 241h-44.24c-8.291 0-15 6.709-15 15s6.709 15 15 15h44.24c.381-4.968.76-9.937.76-15s-.379-10.032-.76-15z" fill="#cfd7e6"/><path d="m352.464 352.464c-5.859 5.859-5.859 15.352 0 21.211l31.245 31.245c7.603-6.52 14.691-13.608 21.211-21.211l-31.245-31.245c-5.86-5.86-15.352-5.86-21.211 0z" fill="#cfd7e6"/><path d="m352.464 159.536c5.859 5.859 15.352 5.859 21.211 0l31.245-31.245c-6.52-7.603-13.608-14.691-21.211-21.211l-31.245 31.245c-5.86 5.86-5.86 15.352 0 21.211z" fill="#cfd7e6"/></g></svg>